<svg xmlns="http://www.w3.org/2000/svg" viewBox="0 0 120 120" role="img" aria-label="Foundry-Java mark">
  <defs><linearGradient id="ember" gradientUnits="userSpaceOnUse" x1="30" y1="4" x2="30" y2="55"><stop offset="0" stop-color="#FFD76B"/><stop offset=".5" stop-color="#FF8A3D"/><stop offset="1" stop-color="#FF6A13"/></linearGradient></defs>
  <polygon points="60,12 101,36 101,84 60,108 19,84 19,36" fill="none" stroke="#3A4250" stroke-width="4" stroke-linejoin="round"/><polygon points="60,12 101,36 101,84 60,108 19,84 19,36" fill="none" stroke="#6B7686" stroke-width="1.3" stroke-linejoin="round" opacity="0.7"/>
  <g transform="translate(60,60) scale(0.90) translate(-32.4,-29)"><path d="M20,21.5 C15.5,17 24.5,13.5 20,7.5" fill="none" stroke="url(#ember)" stroke-width="3.1" stroke-linecap="round"/><path d="M30,22.5 C25,16.5 35,12.5 30,4.5" fill="none" stroke="url(#ember)" stroke-width="3.1" stroke-linecap="round"/><path d="M40,21.5 C35.5,17 44.5,13.5 40,7.5" fill="none" stroke="url(#ember)" stroke-width="3.1" stroke-linecap="round"/><path d="M9,26 H45 L41.5,40.5 Q39.8,47 33.5,47 H20.5 Q14.2,47 12.5,40.5 Z" fill="url(#ember)" stroke="#ECE7DC" stroke-width="0.8"/><path d="M44.5,28.2 C53.2,27.3 57.2,31.1 57.2,35.1 C57.2,39.5 53.1,42.8 46.4,43.2 L46.1,38.9 C50.9,38.6 53.2,36.9 53.2,35.1 C53.2,32.9 50.7,31.2 44.2,32.0 Z" fill="url(#ember)" stroke="#ECE7DC" stroke-width="0.8"/><path d="M7.5,49.5 H52.5 L48.6,54.2 Q47.7,55 46.4,55 H13.6 Q12.3,55 11.4,54.2 Z" fill="url(#ember)" stroke="#ECE7DC" stroke-width="0.8"/></g>
</svg>
